<svg width="124" height="24" viewBox="0 0 124 24" fill="none" xmlns="http://www.w3.org/2000/svg">
<g clip-path="url(#clip0_16_12029)">
<g clip-path="url(#clip1_16_12029)">
<path d="M6.2836 19.2478C7.42433 19.2478 8.3491 18.3231 8.3491 17.1824C8.3491 16.0417 7.42433 15.1169 6.2836 15.1169C5.14287 15.1169 4.21814 16.0417 4.21814 17.1824C4.21814 18.3231 5.14287 19.2478 6.2836 19.2478Z" stroke="#0AAD0A" stroke-width="0.993105" stroke-miterlimit="10" stroke-linecap="round"/>
<path d="M5.39539 7.11441H17.8897" stroke="#0AAD0A" stroke-width="0.993105" stroke-miterlimit="10" stroke-linecap="round"/>
<path d="M6.48914 9.61324H17.3435" stroke="#0AAD0A" stroke-width="0.993105" stroke-miterlimit="10" stroke-linecap="round"/>
<path d="M5.92566 15.1161H14.018C14.9043 15.1161 15.6939 14.5531 15.9819 13.7144L19.3172 4.01102C19.6053 3.17235 20.3941 2.60931 21.2811 2.60931H23.7074" stroke="#0AAD0A" stroke-width="0.993105" stroke-miterlimit="10" stroke-linecap="round"/>
<path d="M6.28378 17.4806C6.44853 17.4806 6.58208 17.347 6.58208 17.1824C6.58208 17.0175 6.44853 16.8841 6.28378 16.8841C6.11903 16.8841 5.98547 17.0175 5.98547 17.1824C5.98547 17.347 6.11903 17.4806 6.28378 17.4806Z" stroke="#0AAD0A" stroke-width="0.82759" stroke-miterlimit="10" stroke-linecap="round"/>
<path d="M13.7924 19.2478C14.9331 19.2478 15.8578 18.3231 15.8578 17.1824C15.8578 16.0417 14.9331 15.1169 13.7924 15.1169C12.6516 15.1169 11.7269 16.0417 11.7269 17.1824C11.7269 18.3231 12.6516 19.2478 13.7924 19.2478Z" stroke="#0AAD0A" stroke-width="0.993105" stroke-miterlimit="10" stroke-linecap="round"/>
<path d="M13.7924 17.4806C13.9571 17.4806 14.0907 17.347 14.0907 17.1823C14.0907 17.0176 13.9571 16.884 13.7924 16.884C13.6277 16.884 13.4941 17.0176 13.4941 17.1823C13.4941 17.347 13.6277 17.4806 13.7924 17.4806Z" stroke="#0AAD0A" stroke-width="0.82759" stroke-miterlimit="10" stroke-linecap="round"/>
<path d="M16.3977 12.5048H5.52842C5.16452 12.5048 4.84515 12.2525 4.74519 11.8853L2.9015 5.13197C2.80935 4.79521 3.05064 4.45927 3.38487 4.45927H17.3191" stroke="#0AAD0A" stroke-width="0.993105" stroke-miterlimit="10" stroke-linecap="round"/>
<path d="M0.768677 20.537C0.768677 20.537 8.7119 17.8492 19.4312 20.537" stroke="#0AAD0A" stroke-width="0.993105" stroke-miterlimit="10" stroke-linecap="round"/>
<path d="M28.2734 19.3548V4.90965H37.8377V7.42768H31.3275V10.8697H37.2029V13.3877H31.3275V19.3548H28.2734Z" fill="#21313C"/>
<path d="M39.0651 19.3548V8.52093H41.978V10.4112H42.0909C42.2884 9.73882 42.6199 9.23094 43.0855 8.88774C43.551 8.53974 44.087 8.36578 44.6936 8.36578C44.844 8.36578 45.0063 8.37515 45.1803 8.39396C45.3542 8.41278 45.5071 8.43863 45.6387 8.47154V11.1377C45.4977 11.0954 45.3025 11.0578 45.0533 11.0248C44.8041 10.9919 44.576 10.9755 44.3691 10.9755C43.9272 10.9755 43.5322 11.0719 43.1842 11.2647C42.841 11.4528 42.5682 11.7161 42.366 12.0547C42.1685 12.3932 42.0698 12.7835 42.0698 13.2255V19.3548H39.0651Z" fill="#21313C"/>
<path d="M51.0294 19.5664C49.9149 19.5664 48.9557 19.3407 48.1516 18.8893C47.3523 18.4332 46.7363 17.789 46.3036 16.9567C45.8711 16.1197 45.6548 15.1299 45.6548 13.9873C45.6548 12.8728 45.8711 11.8948 46.3036 11.0531C46.7363 10.2114 47.3452 9.5554 48.1305 9.08523C48.9204 8.61499 49.8467 8.37987 50.9095 8.37987C51.6242 8.37987 52.2895 8.49507 52.9056 8.72547C53.5262 8.95122 54.067 9.2921 54.5278 9.74818C54.9933 10.2043 55.3554 10.778 55.614 11.4692C55.8727 12.1558 56.002 12.9598 56.002 13.8814V14.7067H46.8539V12.8446H53.1736C53.1736 12.412 53.0795 12.0288 52.8914 11.6949C52.7034 11.3611 52.4424 11.1001 52.1085 10.912C51.7794 10.7192 51.3961 10.6228 50.9589 10.6228C50.5027 10.6228 50.0983 10.7286 49.7457 10.9402C49.3977 11.1471 49.125 11.4269 48.9275 11.7796C48.73 12.1275 48.6289 12.5155 48.6242 12.9434V14.7137C48.6242 15.2498 48.7229 15.713 48.9204 16.1032C49.1226 16.4935 49.4071 16.7944 49.7739 17.0061C50.1407 17.2177 50.5756 17.3234 51.0787 17.3234C51.4126 17.3234 51.7183 17.2764 51.9957 17.1824C52.2731 17.0883 52.5106 16.9472 52.7081 16.7592C52.9056 16.5711 53.056 16.3407 53.1594 16.068L55.9385 16.2513C55.7974 16.9191 55.5082 17.5021 55.0709 18.0005C54.6383 18.4943 54.0788 18.8799 53.3922 19.1573C52.7104 19.43 51.9228 19.5664 51.0294 19.5664Z" fill="#21313C"/>
<path d="M66.381 11.6103L63.6302 11.7796C63.5831 11.5445 63.4821 11.3329 63.3269 11.1447C63.1717 10.952 62.9672 10.7991 62.7133 10.6863C62.464 10.5687 62.1654 10.51 61.8175 10.51C61.352 10.51 60.9593 10.6087 60.6396 10.8062C60.3198 10.999 60.16 11.2576 60.16 11.5821C60.16 11.8407 60.2634 12.0594 60.4703 12.2381C60.6772 12.4167 61.0322 12.5601 61.5354 12.6683L63.4962 13.0633C64.5495 13.2796 65.3347 13.6275 65.852 14.1071C66.3692 14.5868 66.6278 15.2168 66.6278 15.9975C66.6278 16.7075 66.4186 17.3305 66.0001 17.8665C65.5863 18.4026 65.0173 18.8211 64.2932 19.122C63.5738 19.4182 62.7438 19.5664 61.8034 19.5664C60.3692 19.5664 59.2266 19.2678 58.3754 18.6706C57.5291 18.0687 57.033 17.2506 56.8872 16.2161L59.8425 16.0609C59.9319 16.4982 60.1482 16.832 60.4915 17.0624C60.8347 17.2882 61.2744 17.401 61.8105 17.401C62.3371 17.401 62.7602 17.3 63.0801 17.0978C63.4044 16.8908 63.569 16.6252 63.5738 16.3007C63.569 16.028 63.4538 15.8046 63.2282 15.6307C63.0024 15.452 62.6545 15.3156 62.1842 15.2216L60.3081 14.8477C59.2501 14.6361 58.4625 14.2694 57.9452 13.7474C57.4327 13.2255 57.1764 12.5601 57.1764 11.7513C57.1764 11.0554 57.3645 10.4559 57.7407 9.9528C58.1216 9.44965 58.6552 9.0617 59.3418 8.78895C60.033 8.5162 60.8418 8.37987 61.7681 8.37987C63.1364 8.37987 64.2132 8.66903 64.9985 9.24743C65.7885 9.82583 66.2493 10.6134 66.381 11.6103Z" fill="#21313C"/>
<path d="M70.9287 13.0915V19.3548H67.9241V4.90965H70.8441V10.4324H70.9711C71.2156 9.79285 71.6106 9.2921 72.156 8.93001C72.7015 8.56327 73.3856 8.37987 74.2085 8.37987C74.9609 8.37987 75.6168 8.54446 76.1764 8.87357C76.7407 9.19804 77.1779 9.66596 77.4882 10.2772C77.8033 10.8838 77.9582 11.6103 77.9535 12.4567V19.3548H74.9491V12.9927C74.9538 12.325 74.7846 11.8054 74.4413 11.434C74.1028 11.0624 73.6278 10.8767 73.0166 10.8767C72.6074 10.8767 72.2454 10.9637 71.9303 11.1377C71.62 11.3117 71.3754 11.5656 71.1967 11.8994C71.0228 12.2286 70.9334 12.6259 70.9287 13.0915Z" fill="#21313C"/>
<path d="M92.5246 9.9669H89.4348C89.3783 9.56718 89.2637 9.21214 89.0895 8.90184C88.9153 8.58682 88.6924 8.31879 88.4191 8.09776C88.1466 7.87673 87.8315 7.70747 87.4738 7.58991C87.1215 7.47236 86.7383 7.41358 86.3241 7.41358C85.577 7.41358 84.9259 7.59932 84.3708 7.97079C83.8157 8.33753 83.3853 8.87358 83.0802 9.57895C82.7744 10.2796 82.6211 11.1307 82.6211 12.1322C82.6211 13.162 82.7744 14.0272 83.0802 14.7279C83.3907 15.4284 83.8227 15.9575 84.3778 16.3148C84.9329 16.6722 85.5747 16.8509 86.3032 16.8509C86.7128 16.8509 87.0906 16.7968 87.439 16.6887C87.7912 16.5805 88.104 16.423 88.3773 16.2161C88.6498 16.0045 88.8751 15.7482 89.0539 15.4473C89.2374 15.1463 89.3644 14.8031 89.4348 14.4175L92.5246 14.4316C92.4441 15.0946 92.2444 15.7341 91.9246 16.3501C91.6095 16.9614 91.1845 17.5092 90.648 17.9935C90.1169 18.4731 89.4821 18.854 88.7435 19.1361C88.0103 19.4136 87.1804 19.5523 86.2537 19.5523C84.9654 19.5523 83.8134 19.2608 82.7977 18.6777C81.7866 18.0946 80.9876 17.2506 80.4 16.1456C79.817 15.0406 79.5251 13.7028 79.5251 12.1322C79.5251 10.557 79.8217 9.21686 80.4139 8.11185C81.0062 7.00684 81.8106 6.16515 82.8263 5.58678C83.8421 5.00371 84.984 4.71217 86.2537 4.71217C87.0906 4.71217 87.8671 4.82973 88.5817 5.06483C89.3009 5.29995 89.9381 5.6432 90.4931 6.09462C91.0475 6.54132 91.4996 7.08913 91.8472 7.73803C92.2002 8.38692 92.4255 9.12992 92.5246 9.9669Z" fill="#21313C"/>
<path d="M97.1511 19.5594C96.4598 19.5594 95.8443 19.4395 95.3031 19.1996C94.7627 18.9551 94.3346 18.5954 94.0195 18.1205C93.709 17.6408 93.5542 17.0436 93.5542 16.3289C93.5542 15.727 93.6649 15.2216 93.8856 14.8125C94.107 14.4034 94.4074 14.0742 94.7883 13.825C95.1692 13.5758 95.6019 13.3877 96.0866 13.2608C96.5751 13.1338 97.0876 13.0445 97.6241 12.9927C98.2543 12.9269 98.7622 12.8658 99.1477 12.8093C99.5333 12.7482 99.8128 12.6588 99.987 12.5413C100.16 12.4238 100.248 12.2498 100.248 12.0194V11.9771C100.248 11.5304 100.107 11.1848 99.8244 10.9402C99.5472 10.6957 99.1524 10.5735 98.6399 10.5735C98.0987 10.5735 97.6683 10.6934 97.3485 10.9332C97.0288 11.1683 96.8174 11.4645 96.7137 11.8219L93.9351 11.5962C94.076 10.9379 94.3532 10.3689 94.7674 9.88931C95.1808 9.40498 95.715 9.03344 96.3684 8.77486C97.0265 8.51156 97.7883 8.37987 98.6538 8.37987C99.2554 8.37987 99.8314 8.4504 100.382 8.59145C100.937 8.73251 101.428 8.95122 101.856 9.24743C102.289 9.54364 102.629 9.92454 102.879 10.3901C103.128 10.8509 103.253 11.4034 103.253 12.0476V19.3548H100.403V17.8524H100.318C100.144 18.191 99.9119 18.4896 99.62 18.7482C99.3281 19.0021 98.9782 19.202 98.5686 19.3477C98.1599 19.4888 97.6876 19.5594 97.1511 19.5594ZM98.012 17.4857C98.4541 17.4857 98.8443 17.3987 99.1826 17.2247C99.5209 17.046 99.7872 16.8062 99.98 16.5053C100.173 16.2043 100.269 15.8635 100.269 15.4826V14.3329C100.175 14.394 100.046 14.4504 99.8809 14.5021C99.7214 14.5492 99.5403 14.5939 99.3382 14.6361C99.1354 14.6738 98.9333 14.7091 98.7312 14.742C98.5292 14.7701 98.3457 14.796 98.1808 14.8195C97.8285 14.8712 97.5204 14.9535 97.2572 15.0664C96.9939 15.1792 96.7896 15.332 96.6432 15.5248C96.4977 15.713 96.4249 15.9481 96.4249 16.2302C96.4249 16.6393 96.5728 16.952 96.8693 17.1683C97.1705 17.3799 97.5514 17.4857 98.012 17.4857Z" fill="#21313C"/>
<path d="M104.988 19.3548V8.52093H107.901V10.4112H108.014C108.211 9.73882 108.543 9.23094 109.008 8.88774C109.474 8.53974 110.01 8.36578 110.616 8.36578C110.767 8.36578 110.929 8.37515 111.103 8.39396C111.277 8.41278 111.43 8.43863 111.561 8.47154V11.1377C111.42 11.0954 111.225 11.0578 110.976 11.0248C110.727 10.9919 110.499 10.9755 110.292 10.9755C109.849 10.9755 109.455 11.0719 109.107 11.2647C108.763 11.4528 108.491 11.7161 108.289 12.0547C108.091 12.3932 107.992 12.7835 107.992 13.2255V19.3548H104.988Z" fill="#21313C"/>
<path d="M118.825 8.52092V10.778H112.301V8.52092H118.825ZM113.782 5.92532H116.786V16.0256C116.786 16.303 116.829 16.5194 116.913 16.6746C116.998 16.825 117.115 16.9308 117.266 16.9919C117.421 17.0531 117.6 17.0837 117.802 17.0837C117.943 17.0837 118.084 17.0719 118.225 17.0484C118.366 17.0202 118.474 16.999 118.55 16.9849L119.022 19.2208C118.872 19.2678 118.66 19.3219 118.387 19.383C118.115 19.4488 117.783 19.4888 117.393 19.5029C116.669 19.5311 116.034 19.4347 115.489 19.2137C114.948 18.9927 114.527 18.6495 114.226 18.1839C113.925 17.7184 113.777 17.1307 113.782 16.4206V5.92532Z" fill="#21313C"/>
</g>
</g>
<defs>
<clipPath id="clip0_16_12029">
<rect width="123.86" height="24" fill="white"/>
</clipPath>
<clipPath id="clip1_16_12029">
<rect width="123.86" height="24" fill="white"/>
</clipPath>
</defs>
</svg>
